<svg xmlns="http://www.w3.org/2000/svg" xmlns:xlink="http://www.w3.org/1999/xlink" version="1.1" class="marks" width="704" height="600" viewBox="0 0 704 600"><rect width="704" height="600" fill="#0e1117"/><g fill="none" stroke-miterlimit="10" transform="translate(145,0)"><g class="mark-group role-frame root" role="graphics-object" aria-roledescription="group mark container"><g transform="translate(0,0)"><path class="background" aria-hidden="true" d="M0,0h559v580h-559Z" stroke-width="0"/><g><g class="mark-group role-axis" role="graphics-symbol" aria-roledescription="axis" aria-label="Y-axis titled 'Préfecture' for a discrete scale with 10 values: Cantal, Lozère, Pyrénées-Orientales, Creuse, Ardennes, ending with Saône-et-Loire"><g transform="translate(0.5,0.5)"><path class="background" aria-hidden="true" d="M0,0h0v0h0Z" pointer-events="none"/><g><g class="mark-text role-axis-label" pointer-events="none"><text text-anchor="end" transform="translate(-16,32.49999999999998)" font-family="&quot;Source Sans Pro&quot;, sans-serif" font-size="12px" font-style="normal" font-weight="400" fill="#e6eaf1" opacity="1">Cantal</text><text text-anchor="end" transform="translate(-16,90.49999999999997)" font-family="&quot;Source Sans Pro&quot;, sans-serif" font-size="12px" font-style="normal" font-weight="400" fill="#e6eaf1" opacity="1">Lozère</text><text text-anchor="end" transform="translate(-16,148.49999999999997)" font-family="&quot;Source Sans Pro&quot;, sans-serif" font-size="12px" font-style="normal" font-weight="400" fill="#e6eaf1" opacity="1">Pyrénées-Orienta…</text><text text-anchor="end" transform="translate(-16,206.49999999999997)" font-family="&quot;Source Sans Pro&quot;, sans-serif" font-size="12px" font-style="normal" font-weight="400" fill="#e6eaf1" opacity="1">Creuse</text><text text-anchor="end" transform="translate(-16,264.5)" font-family="&quot;Source Sans Pro&quot;, sans-serif" font-size="12px" font-style="normal" font-weight="400" fill="#e6eaf1" opacity="1">Ardennes</text><text text-anchor="end" transform="translate(-16,322.5)" font-family="&quot;Source Sans Pro&quot;, sans-serif" font-size="12px" font-style="normal" font-weight="400" fill="#e6eaf1" opacity="1">Haute-Loire</text><text text-anchor="end" transform="translate(-16,380.5)" font-family="&quot;Source Sans Pro&quot;, sans-serif" font-size="12px" font-style="normal" font-weight="400" fill="#e6eaf1" opacity="1">Corse-du-Sud</text><text text-anchor="end" transform="translate(-16,438.5)" font-family="&quot;Source Sans Pro&quot;, sans-serif" font-size="12px" font-style="normal" font-weight="400" fill="#e6eaf1" opacity="1">Hautes-Alpes</text><text text-anchor="end" transform="translate(-16,496.5)" font-family="&quot;Source Sans Pro&quot;, sans-serif" font-size="12px" font-style="normal" font-weight="400" fill="#e6eaf1" opacity="1">Aveyron</text><text text-anchor="end" transform="translate(-16,554.5)" font-family="&quot;Source Sans Pro&quot;, sans-serif" font-size="12px" font-style="normal" font-weight="400" fill="#e6eaf1" opacity="1">Saône-et-Loire</text></g><g class="mark-text role-axis-title" pointer-events="none"><text text-anchor="middle" transform="translate(-130.58333587646484,290) rotate(-90) translate(0,-3)" font-family="&quot;Source Sans Pro&quot;, sans-serif" font-size="14px" font-style="normal" font-weight="400" fill="#e6eaf1" opacity="1">Préfecture</text></g></g><path class="foreground" aria-hidden="true" d="" pointer-events="none" display="none"/></g></g><g class="mark-group role-scope" role="graphics-object" aria-roledescription="group mark container"><g transform="translate(0,6.814999999999978)"><path class="background" aria-hidden="true" d="M22.185000000000002,0L499.54833333333335,0C511.7925681517327,0,521.7333333333333,9.94076518160061,521.7333333333333,22.185000000000002L521.7333333333333,22.185000000000002C521.7333333333333,34.429234818399394,511.7925681517327,44.370000000000005,499.54833333333335,44.370000000000005L22.185000000000002,44.370000000000005C9.94076518160061,44.370000000000005,0,34.429234818399394,0,22.185000000000002L0,22.185000000000002C0,9.94076518160061,9.94076518160061,0,22.185000000000002,0Z"/><g clip-path="url(#clip1)"><g class="mark-group role-scope" role="graphics-object" aria-roledescription="group mark container"><g transform="translate(0,0)"><path class="background" aria-hidden="true" d="M0,0h0v44.370000000000005h0Z"/><g><g class="mark-rect role-mark layer_0_marks" role="graphics-object" aria-roledescription="rect mark container"><path aria-label="Note sur 5: 4.2; Préfecture: Cantal; code: 15; Total des avis: 5" role="graphics-symbol" aria-roledescription="bar" d="M0,0h521.7333333333333v44.370000000000005h-521.7333333333333Z" fill="rgb(228, 245, 255)"/></g></g><path class="foreground" aria-hidden="true" d="" display="none"/></g></g></g><path class="foreground" aria-hidden="true" d="" display="none"/></g><g transform="translate(0,64.81499999999998)"><path class="background" aria-hidden="true" d="M22.185000000000002,0L474.70388888888886,0C486.94812370728823,0,496.88888888888886,9.94076518160061,496.88888888888886,22.185000000000002L496.88888888888886,22.185000000000002C496.88888888888886,34.429234818399394,486.94812370728823,44.370000000000005,474.70388888888886,44.370000000000005L22.185000000000002,44.370000000000005C9.94076518160061,44.370000000000005,0,34.429234818399394,0,22.185000000000002L0,22.185000000000002C0,9.94076518160061,9.94076518160061,0,22.185000000000002,0Z"/><g clip-path="url(#clip2)"><g class="mark-group role-scope" role="graphics-object" aria-roledescription="group mark container"><g transform="translate(0,0)"><path class="background" aria-hidden="true" d="M0,0h0v44.370000000000005h0Z"/><g><g class="mark-rect role-mark layer_0_marks" role="graphics-object" aria-roledescription="rect mark container"><path aria-label="Note sur 5: 4; Préfecture: Lozère; code: 48; Total des avis: 8" role="graphics-symbol" aria-roledescription="bar" d="M0,0h496.88888888888886v44.370000000000005h-496.88888888888886Z" fill="rgb(178, 226, 255)"/></g></g><path class="foreground" aria-hidden="true" d="" display="none"/></g></g></g><path class="foreground" aria-hidden="true" d="" display="none"/></g><g transform="translate(0,122.81499999999998)"><path class="background" aria-hidden="true" d="M22.185000000000002,0L437.43722222222226,0C449.68145704062164,0,459.62222222222226,9.94076518160061,459.62222222222226,22.185000000000002L459.62222222222226,22.185000000000002C459.62222222222226,34.429234818399394,449.68145704062164,44.370000000000005,437.43722222222226,44.370000000000005L22.185000000000002,44.370000000000005C9.94076518160061,44.370000000000005,0,34.429234818399394,0,22.185000000000002L0,22.185000000000002C0,9.94076518160061,9.94076518160061,0,22.185000000000002,0Z"/><g clip-path="url(#clip3)"><g class="mark-group role-scope" role="graphics-object" aria-roledescription="group mark container"><g transform="translate(0,0)"><path class="background" aria-hidden="true" d="M0,0h0v44.370000000000005h0Z"/><g><g class="mark-rect role-mark layer_0_marks" role="graphics-object" aria-roledescription="rect mark container"><path aria-label="Note sur 5: 3.7; Préfecture: Pyrénées-Orientales; code: 66; Total des avis: 59" role="graphics-symbol" aria-roledescription="bar" d="M0,0h459.62222222222226v44.370000000000005h-459.62222222222226Z" fill="rgb(93, 178, 254)"/></g></g><path class="foreground" aria-hidden="true" d="" display="none"/></g></g></g><path class="foreground" aria-hidden="true" d="" display="none"/></g><g transform="translate(0,180.81499999999997)"><path class="background" aria-hidden="true" d="M22.185000000000002,0L437.43722222222226,0C449.68145704062164,0,459.62222222222226,9.94076518160061,459.62222222222226,22.185000000000002L459.62222222222226,22.185000000000002C459.62222222222226,34.429234818399394,449.68145704062164,44.370000000000005,437.43722222222226,44.370000000000005L22.185000000000002,44.370000000000005C9.94076518160061,44.370000000000005,0,34.429234818399394,0,22.185000000000002L0,22.185000000000002C0,9.94076518160061,9.94076518160061,0,22.185000000000002,0Z"/><g clip-path="url(#clip4)"><g class="mark-group role-scope" role="graphics-object" aria-roledescription="group mark container"><g transform="translate(0,0)"><path class="background" aria-hidden="true" d="M0,0h0v44.370000000000005h0Z"/><g><g class="mark-rect role-mark layer_0_marks" role="graphics-object" aria-roledescription="rect mark container"><path aria-label="Note sur 5: 3.7; Préfecture: Creuse; code: 23; Total des avis: 23" role="graphics-symbol" aria-roledescription="bar" d="M0,0h459.62222222222226v44.370000000000005h-459.62222222222226Z" fill="rgb(93, 178, 254)"/></g></g><path class="foreground" aria-hidden="true" d="" display="none"/></g></g></g><path class="foreground" aria-hidden="true" d="" display="none"/></g><g transform="translate(0,238.81499999999997)"><path class="background" aria-hidden="true" d="M22.185000000000002,0L437.43722222222226,0C449.68145704062164,0,459.62222222222226,9.94076518160061,459.62222222222226,22.185000000000002L459.62222222222226,22.185000000000002C459.62222222222226,34.429234818399394,449.68145704062164,44.370000000000005,437.43722222222226,44.370000000000005L22.185000000000002,44.370000000000005C9.94076518160061,44.370000000000005,0,34.429234818399394,0,22.185000000000002L0,22.185000000000002C0,9.94076518160061,9.94076518160061,0,22.185000000000002,0Z"/><g clip-path="url(#clip5)"><g class="mark-group role-scope" role="graphics-object" aria-roledescription="group mark container"><g transform="translate(0,0)"><path class="background" aria-hidden="true" d="M0,0h0v44.370000000000005h0Z"/><g><g class="mark-rect role-mark layer_0_marks" role="graphics-object" aria-roledescription="rect mark container"><path aria-label="Note sur 5: 3.7; Préfecture: Ardennes; code: 08; Total des avis: 23" role="graphics-symbol" aria-roledescription="bar" d="M0,0h459.62222222222226v44.370000000000005h-459.62222222222226Z" fill="rgb(93, 178, 254)"/></g></g><path class="foreground" aria-hidden="true" d="" display="none"/></g></g></g><path class="foreground" aria-hidden="true" d="" display="none"/></g><g transform="translate(0,296.815)"><path class="background" aria-hidden="true" d="M22.185000000000002,0L425.01500000000004,0C437.2592348183994,0,447.20000000000005,9.94076518160061,447.20000000000005,22.185000000000002L447.20000000000005,22.185000000000002C447.20000000000005,34.429234818399394,437.2592348183994,44.370000000000005,425.01500000000004,44.370000000000005L22.185000000000002,44.370000000000005C9.94076518160061,44.370000000000005,0,34.429234818399394,0,22.185000000000002L0,22.185000000000002C0,9.94076518160061,9.94076518160061,0,22.185000000000002,0Z"/><g clip-path="url(#clip6)"><g class="mark-group role-scope" role="graphics-object" aria-roledescription="group mark container"><g transform="translate(0,0)"><path class="background" aria-hidden="true" d="M0,0h0v44.370000000000005h0Z"/><g><g class="mark-rect role-mark layer_0_marks" role="graphics-object" aria-roledescription="rect mark container"><path aria-label="Note sur 5: 3.6; Préfecture: Haute-Loire; code: 43; Total des avis: 31" role="graphics-symbol" aria-roledescription="bar" d="M0,0h447.20000000000005v44.370000000000005h-447.20000000000005Z" fill="rgb(64, 159, 244)"/></g></g><path class="foreground" aria-hidden="true" d="" display="none"/></g></g></g><path class="foreground" aria-hidden="true" d="" display="none"/></g><g transform="translate(0,354.815)"><path class="background" aria-hidden="true" d="M22.185000000000002,0L387.7483333333333,0C399.99256815173266,0,409.9333333333333,9.94076518160061,409.9333333333333,22.185000000000002L409.9333333333333,22.185000000000002C409.9333333333333,34.429234818399394,399.99256815173266,44.370000000000005,387.7483333333333,44.370000000000005L22.185000000000002,44.370000000000005C9.94076518160061,44.370000000000005,0,34.429234818399394,0,22.185000000000002L0,22.185000000000002C0,9.94076518160061,9.94076518160061,0,22.185000000000002,0Z"/><g clip-path="url(#clip7)"><g class="mark-group role-scope" role="graphics-object" aria-roledescription="group mark container"><g transform="translate(0,0)"><path class="background" aria-hidden="true" d="M0,0h0v44.370000000000005h0Z"/><g><g class="mark-rect role-mark layer_0_marks" role="graphics-object" aria-roledescription="rect mark container"><path aria-label="Note sur 5: 3.3; Préfecture: Corse-du-Sud; code: 2A; Total des avis: 20" role="graphics-symbol" aria-roledescription="bar" d="M0,0h409.9333333333333v44.370000000000005h-409.9333333333333Z" fill="rgb(0, 97, 187)"/></g></g><path class="foreground" aria-hidden="true" d="" display="none"/></g></g></g><path class="foreground" aria-hidden="true" d="" display="none"/></g><g transform="translate(0,412.815)"><path class="background" aria-hidden="true" d="M22.185000000000002,0L387.7483333333333,0C399.99256815173266,0,409.9333333333333,9.94076518160061,409.9333333333333,22.185000000000002L409.9333333333333,22.185000000000002C409.9333333333333,34.429234818399394,399.99256815173266,44.370000000000005,387.7483333333333,44.370000000000005L22.185000000000002,44.370000000000005C9.94076518160061,44.370000000000005,0,34.429234818399394,0,22.185000000000002L0,22.185000000000002C0,9.94076518160061,9.94076518160061,0,22.185000000000002,0Z"/><g clip-path="url(#clip8)"><g class="mark-group role-scope" role="graphics-object" aria-roledescription="group mark container"><g transform="translate(0,0)"><path class="background" aria-hidden="true" d="M0,0h0v44.370000000000005h0Z"/><g><g class="mark-rect role-mark layer_0_marks" role="graphics-object" aria-roledescription="rect mark container"><path aria-label="Note sur 5: 3.3; Préfecture: Hautes-Alpes; code: 05; Total des avis: 22" role="graphics-symbol" aria-roledescription="bar" d="M0,0h409.9333333333333v44.370000000000005h-409.9333333333333Z" fill="rgb(0, 97, 187)"/></g></g><path class="foreground" aria-hidden="true" d="" display="none"/></g></g></g><path class="foreground" aria-hidden="true" d="" display="none"/></g><g transform="translate(0,470.815)"><path class="background" aria-hidden="true" d="M22.185000000000002,0L387.7483333333333,0C399.99256815173266,0,409.9333333333333,9.94076518160061,409.9333333333333,22.185000000000002L409.9333333333333,22.185000000000002C409.9333333333333,34.429234818399394,399.99256815173266,44.370000000000005,387.7483333333333,44.370000000000005L22.185000000000002,44.370000000000005C9.94076518160061,44.370000000000005,0,34.429234818399394,0,22.185000000000002L0,22.185000000000002C0,9.94076518160061,9.94076518160061,0,22.185000000000002,0Z"/><g clip-path="url(#clip9)"><g class="mark-group role-scope" role="graphics-object" aria-roledescription="group mark container"><g transform="translate(0,0)"><path class="background" aria-hidden="true" d="M0,0h0v44.370000000000005h0Z"/><g><g class="mark-rect role-mark layer_0_marks" role="graphics-object" aria-roledescription="rect mark container"><path aria-label="Note sur 5: 3.3; Préfecture: Aveyron; code: 12; Total des avis: 21" role="graphics-symbol" aria-roledescription="bar" d="M0,0h409.9333333333333v44.370000000000005h-409.9333333333333Z" fill="rgb(0, 97, 187)"/></g></g><path class="foreground" aria-hidden="true" d="" display="none"/></g></g></g><path class="foreground" aria-hidden="true" d="" display="none"/></g><g transform="translate(0,528.8149999999999)"><path class="background" aria-hidden="true" d="M22.185000000000002,0L362.9038888888889,0C375.1481237072883,0,385.0888888888889,9.94076518160061,385.0888888888889,22.185000000000002L385.0888888888889,22.185000000000002C385.0888888888889,34.429234818399394,375.1481237072883,44.370000000000005,362.9038888888889,44.370000000000005L22.185000000000002,44.370000000000005C9.94076518160061,44.370000000000005,0,34.429234818399394,0,22.185000000000002L0,22.185000000000002C0,9.94076518160061,9.94076518160061,0,22.185000000000002,0Z"/><g clip-path="url(#clip10)"><g class="mark-group role-scope" role="graphics-object" aria-roledescription="group mark container"><g transform="translate(0,0)"><path class="background" aria-hidden="true" d="M0,0h0v44.370000000000005h0Z"/><g><g class="mark-rect role-mark layer_0_marks" role="graphics-object" aria-roledescription="rect mark container"><path aria-label="Note sur 5: 3.1; Préfecture: Saône-et-Loire; code: 71; Total des avis: 57" role="graphics-symbol" aria-roledescription="bar" d="M0,0h385.0888888888889v44.370000000000005h-385.0888888888889Z" fill="rgb(0, 66, 128)"/></g></g><path class="foreground" aria-hidden="true" d="" display="none"/></g></g></g><path class="foreground" aria-hidden="true" d="" display="none"/></g></g><g class="mark-text role-mark layer_1_marks" role="graphics-object" aria-roledescription="text mark container"><text aria-label="Note sur 5: 4.2; Préfecture: Cantal; code: 15; Total des avis: 5" role="graphics-symbol" aria-roledescription="text mark" text-anchor="start" transform="translate(524.7333333333333,31.99999999999998)" font-family="&quot;Source Sans Pro&quot;, sans-serif" font-size="11px" fill="rgb(228, 245, 255)">4.2</text><text aria-label="Note sur 5: 4; Préfecture: Lozère; code: 48; Total des avis: 8" role="graphics-symbol" aria-roledescription="text mark" text-anchor="start" transform="translate(499.88888888888886,89.99999999999997)" font-family="&quot;Source Sans Pro&quot;, sans-serif" font-size="11px" fill="rgb(178, 226, 255)">4</text><text aria-label="Note sur 5: 3.7; Préfecture: Pyrénées-Orientales; code: 66; Total des avis: 59" role="graphics-symbol" aria-roledescription="text mark" text-anchor="start" transform="translate(462.62222222222226,147.99999999999997)" font-family="&quot;Source Sans Pro&quot;, sans-serif" font-size="11px" fill="rgb(93, 178, 254)">3.7</text><text aria-label="Note sur 5: 3.7; Préfecture: Creuse; code: 23; Total des avis: 23" role="graphics-symbol" aria-roledescription="text mark" text-anchor="start" transform="translate(462.62222222222226,205.99999999999997)" font-family="&quot;Source Sans Pro&quot;, sans-serif" font-size="11px" fill="rgb(93, 178, 254)">3.7</text><text aria-label="Note sur 5: 3.7; Préfecture: Ardennes; code: 08; Total des avis: 23" role="graphics-symbol" aria-roledescription="text mark" text-anchor="start" transform="translate(462.62222222222226,264)" font-family="&quot;Source Sans Pro&quot;, sans-serif" font-size="11px" fill="rgb(93, 178, 254)">3.7</text><text aria-label="Note sur 5: 3.6; Préfecture: Haute-Loire; code: 43; Total des avis: 31" role="graphics-symbol" aria-roledescription="text mark" text-anchor="start" transform="translate(450.20000000000005,322)" font-family="&quot;Source Sans Pro&quot;, sans-serif" font-size="11px" fill="rgb(64, 159, 244)">3.6</text><text aria-label="Note sur 5: 3.3; Préfecture: Corse-du-Sud; code: 2A; Total des avis: 20" role="graphics-symbol" aria-roledescription="text mark" text-anchor="start" transform="translate(412.9333333333333,380)" font-family="&quot;Source Sans Pro&quot;, sans-serif" font-size="11px" fill="rgb(0, 97, 187)">3.3</text><text aria-label="Note sur 5: 3.3; Préfecture: Hautes-Alpes; code: 05; Total des avis: 22" role="graphics-symbol" aria-roledescription="text mark" text-anchor="start" transform="translate(412.9333333333333,438)" font-family="&quot;Source Sans Pro&quot;, sans-serif" font-size="11px" fill="rgb(0, 97, 187)">3.3</text><text aria-label="Note sur 5: 3.3; Préfecture: Aveyron; code: 12; Total des avis: 21" role="graphics-symbol" aria-roledescription="text mark" text-anchor="start" transform="translate(412.9333333333333,496)" font-family="&quot;Source Sans Pro&quot;, sans-serif" font-size="11px" fill="rgb(0, 97, 187)">3.3</text><text aria-label="Note sur 5: 3.1; Préfecture: Saône-et-Loire; code: 71; Total des avis: 57" role="graphics-symbol" aria-roledescription="text mark" text-anchor="start" transform="translate(388.0888888888889,554)" font-family="&quot;Source Sans Pro&quot;, sans-serif" font-size="11px" fill="rgb(0, 66, 128)">3.1</text></g></g><path class="foreground" aria-hidden="true" d="" display="none"/></g></g></g><defs><clipPath id="clip1"><path d="M22.185000000000002,0L499.54833333333335,0C511.7925681517327,0,521.7333333333333,9.94076518160061,521.7333333333333,22.185000000000002L521.7333333333333,22.185000000000002C521.7333333333333,34.429234818399394,511.7925681517327,44.370000000000005,499.54833333333335,44.370000000000005L22.185000000000002,44.370000000000005C9.94076518160061,44.370000000000005,0,34.429234818399394,0,22.185000000000002L0,22.185000000000002C0,9.94076518160061,9.94076518160061,0,22.185000000000002,0Z"/></clipPath><clipPath id="clip2"><path d="M22.185000000000002,0L474.70388888888886,0C486.94812370728823,0,496.88888888888886,9.94076518160061,496.88888888888886,22.185000000000002L496.88888888888886,22.185000000000002C496.88888888888886,34.429234818399394,486.94812370728823,44.370000000000005,474.70388888888886,44.370000000000005L22.185000000000002,44.370000000000005C9.94076518160061,44.370000000000005,0,34.429234818399394,0,22.185000000000002L0,22.185000000000002C0,9.94076518160061,9.94076518160061,0,22.185000000000002,0Z"/></clipPath><clipPath id="clip3"><path d="M22.185000000000002,0L437.43722222222226,0C449.68145704062164,0,459.62222222222226,9.94076518160061,459.62222222222226,22.185000000000002L459.62222222222226,22.185000000000002C459.62222222222226,34.429234818399394,449.68145704062164,44.370000000000005,437.43722222222226,44.370000000000005L22.185000000000002,44.370000000000005C9.94076518160061,44.370000000000005,0,34.429234818399394,0,22.185000000000002L0,22.185000000000002C0,9.94076518160061,9.94076518160061,0,22.185000000000002,0Z"/></clipPath><clipPath id="clip4"><path d="M22.185000000000002,0L437.43722222222226,0C449.68145704062164,0,459.62222222222226,9.94076518160061,459.62222222222226,22.185000000000002L459.62222222222226,22.185000000000002C459.62222222222226,34.429234818399394,449.68145704062164,44.370000000000005,437.43722222222226,44.370000000000005L22.185000000000002,44.370000000000005C9.94076518160061,44.370000000000005,0,34.429234818399394,0,22.185000000000002L0,22.185000000000002C0,9.94076518160061,9.94076518160061,0,22.185000000000002,0Z"/></clipPath><clipPath id="clip5"><path d="M22.185000000000002,0L437.43722222222226,0C449.68145704062164,0,459.62222222222226,9.94076518160061,459.62222222222226,22.185000000000002L459.62222222222226,22.185000000000002C459.62222222222226,34.429234818399394,449.68145704062164,44.370000000000005,437.43722222222226,44.370000000000005L22.185000000000002,44.370000000000005C9.94076518160061,44.370000000000005,0,34.429234818399394,0,22.185000000000002L0,22.185000000000002C0,9.94076518160061,9.94076518160061,0,22.185000000000002,0Z"/></clipPath><clipPath id="clip6"><path d="M22.185000000000002,0L425.01500000000004,0C437.2592348183994,0,447.20000000000005,9.94076518160061,447.20000000000005,22.185000000000002L447.20000000000005,22.185000000000002C447.20000000000005,34.429234818399394,437.2592348183994,44.370000000000005,425.01500000000004,44.370000000000005L22.185000000000002,44.370000000000005C9.94076518160061,44.370000000000005,0,34.429234818399394,0,22.185000000000002L0,22.185000000000002C0,9.94076518160061,9.94076518160061,0,22.185000000000002,0Z"/></clipPath><clipPath id="clip7"><path d="M22.185000000000002,0L387.7483333333333,0C399.99256815173266,0,409.9333333333333,9.94076518160061,409.9333333333333,22.185000000000002L409.9333333333333,22.185000000000002C409.9333333333333,34.429234818399394,399.99256815173266,44.370000000000005,387.7483333333333,44.370000000000005L22.185000000000002,44.370000000000005C9.94076518160061,44.370000000000005,0,34.429234818399394,0,22.185000000000002L0,22.185000000000002C0,9.94076518160061,9.94076518160061,0,22.185000000000002,0Z"/></clipPath><clipPath id="clip8"><path d="M22.185000000000002,0L387.7483333333333,0C399.99256815173266,0,409.9333333333333,9.94076518160061,409.9333333333333,22.185000000000002L409.9333333333333,22.185000000000002C409.9333333333333,34.429234818399394,399.99256815173266,44.370000000000005,387.7483333333333,44.370000000000005L22.185000000000002,44.370000000000005C9.94076518160061,44.370000000000005,0,34.429234818399394,0,22.185000000000002L0,22.185000000000002C0,9.94076518160061,9.94076518160061,0,22.185000000000002,0Z"/></clipPath><clipPath id="clip9"><path d="M22.185000000000002,0L387.7483333333333,0C399.99256815173266,0,409.9333333333333,9.94076518160061,409.9333333333333,22.185000000000002L409.9333333333333,22.185000000000002C409.9333333333333,34.429234818399394,399.99256815173266,44.370000000000005,387.7483333333333,44.370000000000005L22.185000000000002,44.370000000000005C9.94076518160061,44.370000000000005,0,34.429234818399394,0,22.185000000000002L0,22.185000000000002C0,9.94076518160061,9.94076518160061,0,22.185000000000002,0Z"/></clipPath><clipPath id="clip10"><path d="M22.185000000000002,0L362.9038888888889,0C375.1481237072883,0,385.0888888888889,9.94076518160061,385.0888888888889,22.185000000000002L385.0888888888889,22.185000000000002C385.0888888888889,34.429234818399394,375.1481237072883,44.370000000000005,362.9038888888889,44.370000000000005L22.185000000000002,44.370000000000005C9.94076518160061,44.370000000000005,0,34.429234818399394,0,22.185000000000002L0,22.185000000000002C0,9.94076518160061,9.94076518160061,0,22.185000000000002,0Z"/></clipPath></defs></svg>